<svg width="47" height="47" viewBox="0 0 47 47" fill="none" xmlns="http://www.w3.org/2000/svg">
<path d="M0 0.5C0 0.223858 0.223858 0 0.5 0H46.5C46.7761 0 47 0.223858 47 0.5V46.5C47 46.7761 46.7761 47 46.5 47H0.5C0.223858 47 0 46.7761 0 46.5V0.5Z" fill="#FF0000"/>
<path d="M24.4402 39.1798C23.8665 38.6077 23.4115 37.9279 23.1014 37.1795C22.7912 36.431 22.632 35.6286 22.6329 34.8184L22.6329 25.9089C22.625 25.6013 22.4993 25.3086 22.2818 25.0911C22.0643 24.8736 21.7715 24.7479 21.464 24.74H12.5205C11.7101 24.7425 10.9072 24.5841 10.1585 24.2738C9.40983 23.9636 8.73021 23.5077 8.15911 22.9326L7.28088 22.0544V33.3398C7.28088 36.8612 10.1383 39.7187 13.6597 39.7187L24.9769 39.7165L24.4402 39.1798ZM23.9332 7.15851C25.1 8.32524 25.7406 9.8738 25.7406 11.5199V20.4634C25.7405 20.6172 25.7707 20.7696 25.8295 20.9117C25.8883 21.0538 25.9745 21.183 26.0833 21.2917C26.1921 21.4005 26.3212 21.4867 26.4633 21.5455C26.6054 21.6043 26.7578 21.6345 26.9116 21.6344L35.8211 21.6344C36.6311 21.6319 37.4334 21.7901 38.1818 22.1C38.9301 22.4099 39.6094 22.8652 40.1804 23.4396L40.7171 23.9763V12.6612C40.7166 10.9696 40.0443 9.34749 38.8482 8.15136C37.652 6.95522 36.0299 6.28299 34.3383 6.28241H23.0529L23.9332 7.15851Z" fill="white"/>
<path d="M40.7192 33.3377V26.4985C40.6107 26.4537 40.5119 26.3882 40.4286 26.3055L38.8736 24.7505C38.0697 23.9466 36.956 23.4862 35.8211 23.4884L26.9115 23.4884C26.5143 23.4894 26.1207 23.4119 25.7535 23.2604C25.3863 23.1088 25.0526 22.8862 24.7717 22.6053C24.4908 22.3244 24.2682 21.9907 24.1166 21.6235C23.9651 21.2563 23.8876 20.8627 23.8886 20.4655L23.8908 11.5199C23.8878 10.3749 23.4335 9.27734 22.6265 8.46517L20.7173 6.55598C20.6384 6.47647 20.5751 6.38295 20.5306 6.28021L13.6639 6.28233C10.1425 6.28233 7.28507 9.13975 7.28295 12.6633L7.28295 19.5279C7.38535 19.5711 7.47885 19.633 7.55872 19.7103L9.47003 21.6216C10.2761 22.4277 11.3856 22.888 12.5226 22.888L21.4661 22.8838C22.2622 22.9033 23.0204 23.2283 23.5835 23.7914C24.1466 24.3545 24.4716 25.1127 24.4911 25.9088L24.4911 34.8183C24.489 35.9532 24.9514 37.0648 25.7554 37.8688L27.3103 39.4237C27.3938 39.51 27.4574 39.6076 27.5013 39.7165H34.3404C37.8618 39.7165 40.7192 36.859 40.7192 33.3377Z" fill="white"/>
</svg>
