<svg width="47" height="47" viewBox="0 0 47 47" fill="none" xmlns="http://www.w3.org/2000/svg">
<g clip-path="url(#clip0_438_2)">
<path d="M0 0.5C0 0.223858 0.223858 0 0.5 0H46.5C46.7761 0 47 0.223858 47 0.5V46.5C47 46.7761 46.7761 47 46.5 47H0.5C0.223858 47 0 46.7761 0 46.5V0.5Z" fill="#2649E5"/>
<path d="M24.4401 39.1798C23.8664 38.6077 23.4114 37.9279 23.1013 37.1795C22.7911 36.431 22.6319 35.6286 22.6328 34.8184V25.9089C22.6249 25.6013 22.4992 25.3086 22.2817 25.0911C22.0642 24.8736 21.7714 24.7479 21.4639 24.74H12.5204C11.71 24.7425 10.9071 24.5841 10.1584 24.2738C9.40971 23.9636 8.73009 23.5077 8.15899 22.9326L7.28076 22.0544V33.3398C7.28076 36.8612 10.1382 39.7187 13.6596 39.7187L24.9768 39.7165L24.4401 39.1798ZM23.9331 7.15851C25.0999 8.32524 25.7405 9.8738 25.7405 11.5199V20.4634C25.7404 20.6172 25.7706 20.7696 25.8294 20.9117C25.8882 21.0538 25.9744 21.183 26.0832 21.2917C26.192 21.4005 26.3211 21.4867 26.4632 21.5455C26.6053 21.6043 26.7577 21.6345 26.9115 21.6344H35.821C36.631 21.6319 37.4333 21.7901 38.1817 22.1C38.93 22.4099 39.6093 22.8652 40.1803 23.4396L40.717 23.9763V12.6612C40.7165 10.9696 40.0442 9.34749 38.8481 8.15136C37.6519 6.95522 36.0298 6.28299 34.3382 6.28241H23.0528L23.9331 7.15851Z" fill="#F2EED8"/>
<path d="M40.719 33.3377V26.4985C40.6105 26.4537 40.5117 26.3882 40.4284 26.3055L38.8734 24.7505C38.0695 23.9466 36.9558 23.4862 35.8209 23.4884H26.9113C26.5141 23.4894 26.1205 23.4119 25.7533 23.2604C25.3861 23.1088 25.0524 22.8862 24.7715 22.6053C24.4906 22.3244 24.268 21.9907 24.1164 21.6235C23.9649 21.2563 23.8874 20.8627 23.8884 20.4655L23.8906 11.5199C23.8876 10.3749 23.4333 9.27734 22.6263 8.46517L20.7171 6.55598C20.6382 6.47647 20.5749 6.38295 20.5304 6.28021L13.6637 6.28233C10.1423 6.28233 7.28483 9.13975 7.28271 12.6633V19.5279C7.38511 19.5711 7.47862 19.633 7.55849 19.7103L9.46979 21.6216C10.2759 22.4277 11.3854 22.888 12.5224 22.888L21.4659 22.8838C22.262 22.9033 23.0202 23.2283 23.5833 23.7914C24.1464 24.3545 24.4714 25.1127 24.4909 25.9088V34.8183C24.4888 35.9532 24.9512 37.0648 25.7552 37.8688L27.3101 39.4237C27.3936 39.51 27.4572 39.6076 27.5011 39.7165H34.3402C37.8616 39.7165 40.719 36.859 40.719 33.3377Z" fill="#F2EED8"/>
</g>
<defs>
<clipPath id="clip0_438_2">
<rect width="47" height="47" fill="white"/>
</clipPath>
</defs>
</svg>
